<?xml version="1.0" encoding="UTF-8"?>
<svg width="24px" height="24px" viewBox="0 0 24 24" version="1.1" xmlns="http://www.w3.org/2000/svg" xmlns:xlink="http://www.w3.org/1999/xlink">
    <title>8921743D-D553-4C2C-B176-1536B3471C2A</title>
    <defs>
        <path d="M13.7592593,12 L17.8946446,7.89464464 L16.1053554,6.10535536 L12,10.2407407 L7.86461461,6.10535536 L6.10535536,7.89464464 L10.2394895,12 L6.10535536,16.1053554 L7.89464464,17.8946446 L12,13.7592593 L16.1341341,17.8946446 L17.8946446,16.1053554 L13.7592593,12 Z M17.0437938,3.34884885 C18.5690691,4.22847848 19.7715215,5.43093093 20.6511512,6.95620621 C21.5508008,8.50025025 22,10.1819319 22,12 C22,13.8180681 21.5508008,15.4997497 20.6511512,17.0437938 C19.7715215,18.5690691 18.5690691,19.7715215 17.0437938,20.6511512 C15.4997497,21.5508008 13.8180681,22 12,22 C10.1819319,22 8.50025025,21.5508008 6.95620621,20.6511512 C5.43093093,19.7715215 4.22847848,18.5690691 3.34884885,17.0437938 C2.4491992,15.4997497 2,13.8180681 2,12 C2,10.1819319 2.4491992,8.50025025 3.34884885,6.95620621 C4.22847848,5.43093093 5.43093093,4.22847848 6.95620621,3.34884885 C8.50025025,2.4491992 10.1819319,2 12,2 C13.8180681,2 15.4997497,2.4491992 17.0437938,3.34884885 L17.0437938,3.34884885 Z" id="path-1"></path>
    </defs>
    <g id="Icons" stroke="none" stroke-width="1" fill="none" fill-rule="evenodd">
        <g id="Philips/Icon/Error">
            <mask id="mask-2" fill="white">
                <use xlink:href="#path-1"></use>
            </mask>
            <use id="CrossMarkFilled" fill="#EFF9FF" xlink:href="#path-1"></use>
        </g>
    </g>
</svg>